# xmcd CD database file
#
# Track frame offsets:
#	150
#	13177
#	24380
#	34849
#	46157
#	56818
#	68740
#	79940
#	91397
#	103827
#
# Disc length: 1552 seconds
#
# Revision: 0
# Processed by: cddbd v1.5.1PL0 Copyright (c) Steve Scherf et al.
# Submitted via: CDex 1.51
#
DISCID=7e060e0a
DTITLE=Johnny Cash - Vintage Vaults Volume 3
DYEAR=2004
DGENRE=Country
TTITLE0=Folsom Prison Blues
TTITLE1=Train Of Love
TTITLE2=Get Ryhthm
TTITLE3=I Heard That Lonesome Whistle Blow
TTITLE4=There You Go
TTITLE5=Big River
TTITLE6=I Just Thought You'd Like To Know
TTITLE7=Mean Eyed Cat
TTITLE8=Home Of The Blues
TTITLE9=Next In Line
EXTD=YEAR: 2004
EXTT0=
EXTT1=
EXTT2=
EXTT3=
EXTT4=
EXTT5=
EXTT6=
EXTT7=
EXTT8=
EXTT9=
PLAYORDER=
